<svg width="100%" height="100%" viewBox="0 0 512 500" version="1.1" style="fill-rule:evenodd;clip-rule:evenodd;stroke-linejoin:round;stroke-miterlimit:2;">
  <path d="M94.988,433.052C138.869,473.191 196.262,495.424 255.732,495.323C259.587,495.323 263.464,495.232 267.342,495.048C394.208,489.029 495.317,383.01 495.317,256.001C495.317,188.621 466.861,124.281 417.012,78.948C372.904,38.578 315.229,16.169 255.436,16.169C124.151,16.169 16.12,124.2 16.12,255.485C16.12,323.128 44.799,387.697 94.988,433.048L94.988,433.052ZM111.135,415.3C71.183,379.17 46.327,329.24 41.583,275.583C95.455,275.182 147.528,295.207 187.251,331.6C227.241,367.698 252.106,417.641 256.806,471.309C202.943,471.664 150.886,451.648 111.135,415.3ZM400.865,96.7C440.816,132.829 465.671,182.757 470.417,236.412C416.547,236.808 364.476,216.786 324.749,180.4C284.759,144.301 259.894,94.358 255.194,40.69C255.543,40.69 255.894,40.677 256.241,40.677C309.746,40.588 361.382,60.59 400.865,96.7ZM96.7,111.135C131.625,72.514 179.489,47.958 231.23,42.114C233.537,68.813 240.334,94.931 251.336,119.367C264.78,149.302 284.278,176.13 308.6,198.159C332.747,220.209 361.186,237.041 392.135,247.6C416.99,256.11 443.083,260.448 469.354,260.437C469.992,260.437 470.631,260.427 471.27,260.422C469.073,367.556 387.216,457.565 280.77,469.891C275.582,409.998 247.931,354.228 203.4,313.842C158.98,273.335 100.844,251.088 40.73,251.593C41.648,199.532 61.561,149.56 96.7,111.135Z" style="fill:rgb(255,127,0);fill-rule:nonzero;"/>
</svg>