<svg width="100%" height="100%" viewBox="0 0 512 510" version="1.1" style="fill-rule:evenodd;clip-rule:evenodd;stroke-linejoin:round;stroke-miterlimit:2;">
  <path d="M510,180.8C510,115.8 398.3,3.8 331.6,2C191.1,-1.6 108.1,202.1 97.4,230L6.1,321.3C3.5,323.9 2,327.5 2,331.3C2,335 3.5,338.6 6.1,341.3L170.8,506C173.6,508.8 177.2,510.1 180.8,510.1C184.4,510.1 188,508.7 190.8,506L280.2,416.7C302.8,415.9 380.7,408.1 434.5,341.4C449.5,322.8 456.5,299.6 455.1,276.6C492,238 510,206.7 510,180.8ZM180.8,475.9L36.1,331.2L109.5,257.8L254.2,402.5L180.8,475.9ZM442.1,234.1C430.7,214.9 407.8,205.7 386.3,211.4C360.4,218.4 351.6,241.5 350.8,248.5C310.1,232.7 271.4,200.8 273.2,170.2C273.8,160.4 280.5,141.9 309,109.6C314.2,103.8 313.6,94.8 307.8,89.7C302,84.5 293,85.1 287.9,90.9C282.6,96.9 278,102.6 273.7,108.1L262.8,99.2C256.8,94.3 247.9,95.2 242.9,101.2C238,107.2 238.9,116.1 244.9,121.1L257.8,131.6C250,145.2 245.7,157.5 245.1,168.5C242.1,218 298.7,262.3 353.9,279.4C357.2,285.8 364.9,288.8 371.8,286C379,283 381.8,275 379.4,267.6C373.3,248.2 387.6,240.2 393.7,238.6C403,236.1 412.9,240.1 417.8,248.4C431.8,272 429.6,302.1 412.5,323.4C367,379.8 299.3,387.2 279.9,388.2L126,234.4C218.8,8.5 329.8,30.2 330.8,30.3C381.6,31.7 481.7,131.6 481.7,180.8C481.7,191.7 475.3,211.2 446.9,243.5C445.5,240.3 443.9,237.1 442.1,234.1Z" style="fill:white;fill-rule:nonzero;"/>
</svg>