<svg width="100%" height="100%" viewBox="0 0 100 88" version="1.1" style="fill-rule:evenodd;clip-rule:evenodd;stroke-linejoin:round;stroke-miterlimit:2;">
  <g transform="matrix(1.33162,0,0,1.33162,-16.5808,-23.7267)">
      <path d="M69.781,19.002C68.756,19.115 67.978,20.002 68,21.032C68,22.865 67.284,23.798 65.719,24.905C64.154,26.012 61.758,26.982 59.219,28.06C56.68,29.138 53.978,30.344 51.781,32.339C49.784,34.152 48.286,36.74 48.031,40.022L43.844,40.022C41.218,37.123 37.851,34.025 33,34.025C29.422,34.025 26.387,36.031 24.031,38.835C21.675,41.639 19.842,45.306 18.375,49.267C15.442,57.189 14,66.259 14,72.005C14,76.949 18.053,81 23,81C28.428,81 32.474,77.277 36.563,74.066C40.651,70.855 44.722,68.007 50,68.007C55.278,68.007 59.349,70.855 63.438,74.066C67.526,77.277 71.572,81 77,81C81.947,81 86,76.949 86,72.005C86,66.259 84.558,57.189 81.625,49.267C80.158,45.306 78.325,41.639 75.969,38.835C73.613,36.031 70.578,34.025 67,34.025C62.149,34.025 58.782,37.123 56.156,40.022L52.031,40.022C52.233,37.887 53.116,36.534 54.469,35.306C56.022,33.895 58.32,32.79 60.781,31.745C63.242,30.701 65.846,29.731 68.031,28.185C70.216,26.639 72,24.197 72,21.032C72,21.022 72,21.012 72,21.001C72,19.904 71.097,19.002 70,19.002C69.99,19.002 69.979,19.002 69.969,19.002C69.906,18.999 69.844,18.999 69.781,19.002ZM33,38.023C36.384,38.023 38.932,40.413 41.5,43.333C41.878,43.767 42.425,44.017 43,44.02L57,44.02C57.575,44.017 58.122,43.767 58.5,43.333C61.068,40.413 63.616,38.023 67,38.023C69.098,38.023 71.011,39.172 72.906,41.428C74.802,43.684 76.511,46.988 77.875,50.673C80.604,58.043 82,66.956 82,72.005C82,74.788 79.785,77.002 77,77.002C73.516,77.002 70.09,74.229 65.906,70.943C61.723,67.657 56.722,64.009 50,64.009C43.278,64.009 38.277,67.657 34.094,70.943C29.91,74.229 26.484,77.002 23,77.002C20.215,77.002 18,74.788 18,72.005C18,66.956 19.396,58.043 22.125,50.673C23.489,46.988 25.198,43.684 27.094,41.428C28.989,39.172 30.902,38.023 33,38.023ZM33.781,43.989C32.756,44.101 31.978,44.989 32,46.019L32,51.016L27,51.016C26.938,51.013 26.875,51.013 26.813,51.016C25.75,51.066 24.903,51.952 24.903,53.015C24.903,54.113 25.807,55.016 26.906,55.016C26.937,55.016 26.969,55.016 27,55.014L32,55.014L32,60.011C32,60.021 32,60.03 32,60.04C32,61.136 32.903,62.039 34,62.039C35.097,62.039 36,61.136 36,60.04C36,60.03 36,60.021 36,60.011L36,55.014L41,55.014C41.009,55.014 41.019,55.014 41.028,55.014C42.126,55.014 43.028,54.112 43.028,53.015C43.028,51.918 42.126,51.016 41.028,51.016C41.019,51.016 41.009,51.016 41,51.016L36,51.016L36,46.019C36,46.008 36,45.998 36,45.988C36,44.891 35.097,43.988 34,43.988C33.99,43.988 33.979,43.989 33.969,43.989C33.906,43.986 33.844,43.986 33.781,43.989ZM66,44.02C64.343,44.02 63,45.362 63,47.018C63,48.674 64.343,50.017 66,50.017C67.657,50.017 69,48.674 69,47.018C69,45.362 67.657,44.02 66,44.02ZM60,50.017C58.343,50.017 57,51.359 57,53.015C57,54.671 58.343,56.013 60,56.013C61.657,56.013 63,54.671 63,53.015C63,51.359 61.657,50.017 60,50.017ZM72,50.017C70.343,50.017 69,51.359 69,53.015C69,54.671 70.343,56.013 72,56.013C73.657,56.013 75,54.671 75,53.015C75,51.359 73.657,50.017 72,50.017ZM66,56.013C64.343,56.013 63,57.356 63,59.012C63,60.668 64.343,62.01 66,62.01C67.657,62.01 69,60.668 69,59.012C69,57.356 67.657,56.013 66,56.013Z" style="fill:white;fill-rule:nonzero;"/>
  </g>
</svg>