<svg width="100%" height="100%" viewBox="0 0 80 65" version="1.1" style="fill-rule:evenodd;clip-rule:evenodd;stroke-linejoin:round;stroke-miterlimit:2;">
  <g transform="matrix(0.931891,0,0,0.931891,-6.68774,-14.0946)">
      <path d="M87.4,19.1C87.4,17.3 85.9,15.9 84.2,15.9C82.5,15.9 81,17.4 81,19.1C81,20.2 81.6,21.3 82.6,21.9L82.6,48.4L79.3,48.4L79.3,28.9L20.8,28.9L20.8,48.4L17.6,48.4L17.6,21.9C18.6,21.3 19.2,20.3 19.2,19.1C19.2,17.3 17.7,15.9 16,15.9C14.3,15.9 12.8,17.4 12.8,19.1C12.8,20.2 13.4,21.3 14.4,21.9L14.4,67.9L20.9,67.9L20.9,84.1L79.4,84.1L79.4,67.9L85.9,67.9L85.9,21.9C86.8,21.3 87.4,20.3 87.4,19.1ZM17.5,64.6L17.5,51.6L20.7,51.6L20.7,64.6L17.5,64.6ZM76,80.9L24,80.9L24,32.1L76,32.1L76,80.9ZM82.5,64.6L79.3,64.6L79.3,51.6L82.5,51.6L82.5,64.6Z" style="fill:rgb(255,138,7);fill-rule:nonzero;"/>
  </g>
  <g transform="matrix(0.931891,0,0,0.931891,-6.68774,-14.0946)">
      <rect x="33.8" y="41.9" width="9.8" height="9.8" style="fill:rgb(255,138,7);"/>
  </g>
  <g transform="matrix(0.931891,0,0,0.931891,-6.68774,-14.0946)">
      <rect x="56.5" y="41.9" width="9.8" height="9.8" style="fill:rgb(255,138,7);"/>
  </g>
  <g transform="matrix(0.931891,0,0,0.931891,-6.68774,-14.0946)">
      <path d="M69.6,61.4L30.6,61.4L30.6,71.2L69.6,71.2L69.6,61.4ZM66.2,67.9L33.8,67.9L33.8,64.6L66.3,64.6C66.2,64.6 66.2,67.9 66.2,67.9Z" style="fill:rgb(255,138,7);fill-rule:nonzero;"/>
  </g>
</svg>