<?xml version="1.0" encoding="UTF-8" standalone="no"?>
  <!DOCTYPE svg PUBLIC "-//W3C//DTD SVG 1.1//EN" "http://www.w3.org/Graphics/SVG/1.1/DTD/svg11.dtd">
  <svg width="100%" height="100%" viewBox="0 0 100 100" version="1.1" style="fill-rule:evenodd;clip-rule:evenodd;stroke-linejoin:round;stroke-miterlimit:2;">
      <g transform="matrix(1.06777,0,0,1.06777,-3.38872,-3.38872)">
          <path d="M89,27.47L77.24,22.76L72.53,11L60.06,12.69L50,5L39.94,12.7L27.47,11L22.76,22.76L11,27.47L12.72,39.94L5,50L12.71,60.06L11,72.53L22.79,77.24L27.47,89L39.94,87.28L50,95L60.06,87.3L72.53,89L77.24,77.22L89,72.53L87.31,60.06L95,50L87.31,39.94L89,27.47ZM87.45,50L81,58.4L82.42,68.7L72.61,72.63L68.7,82.44L58.4,81L50,87.45L41.6,81L31.3,82.44L27.37,72.63L17.56,68.7L19,58.4L12.55,50L19,41.6L17.56,31.3L27.37,27.37L31.3,17.56L41.6,19L50,12.55L58.4,19L68.7,17.58L72.63,27.39L82.44,31.32L81,41.6L87.45,50Z" style="fill:rgb(191,190,191);fill-rule:nonzero;"/>
      </g>
      <g transform="matrix(1.06777,0,0,1.06777,-3.38872,-3.38872)">
          <path d="M45.78,56.72L34.72,47.67L30.92,52.32L46.5,65.06L69.08,38.87L64.53,34.96L45.78,56.72Z" style="fill:rgb(191,190,191);fill-rule:nonzero;"/>
      </g>
  </svg>