<svg width="100%" height="100%" viewBox="0 0 64 65" version="1.1" style="fill-rule:evenodd;clip-rule:evenodd;stroke-linejoin:round;stroke-miterlimit:2;">
  <g transform="matrix(1.04941,0,0,1.04941,-1.8308,-1.33171)">
      <path d="M32,2C15.542,2 2,15.542 2,32C2,48.458 15.542,62 32,62C48.458,62 62,48.458 62,32C61.981,15.55 48.45,2.019 32,2ZM55.233,16.39L53.154,25.228L42.2,28.879L33,21.52L33,10.677L43.5,6.477C48.253,8.631 52.316,12.063 55.233,16.39ZM55.4,47.345L45.483,48.911L40.083,41.778L42.834,30.778L53.666,27.168L59.871,34.614C59.448,39.16 57.912,43.533 55.4,47.345ZM18.561,48.918L8.6,47.345C6.087,43.532 4.552,39.158 4.13,34.611L10.33,27.165L21.162,30.775L23.913,41.781L18.561,48.918ZM4.009,31.627C4.062,27.166 5.188,22.783 7.29,18.848L8.912,25.748L4.009,31.627ZM25.781,41L23.128,30.378L32,23.281L40.874,30.381L38.219,41L25.781,41ZM55.088,25.744L56.71,18.844C58.812,22.779 59.938,27.162 59.991,31.623L55.088,25.744ZM40.773,5.415L32,8.924L23.18,5.431C28.888,3.529 35.061,3.523 40.773,5.415ZM20.452,6.5L31,10.68L31,21.52L21.8,28.879L10.846,25.228L8.767,16.39C11.674,12.078 15.719,8.655 20.452,6.5ZM10.271,49.634L18.4,50.918L23.316,58.618C18.197,56.937 13.667,53.817 10.271,49.634ZM26.183,59.388L20.216,50.046L25.5,43L38.5,43L43.86,50.08L38.66,59.193C34.57,60.2 30.304,60.269 26.184,59.393L26.183,59.388ZM41.438,58.359L45.7,50.9L53.733,49.633C50.506,53.607 46.254,56.624 41.438,58.359Z" style="fill:rgb(255,127,0);fill-rule:nonzero;"/>
  </g>
</svg>