<svg width="100%" height="100%" viewBox="0 0 100 100" version="1.1" style="fill-rule:evenodd;clip-rule:evenodd;stroke-linejoin:round;stroke-miterlimit:2;">
  <g transform="matrix(1.25623,0,0,1.25623,-12.9191,-12.7041)">
      <path d="M50,11C28.605,11 11,28.605 11,50C11,71.395 28.605,89 50,89C71.395,89 89,71.395 89,50C88.973,28.616 71.384,11.027 50,11ZM77.43,48C77.674,43.165 78.953,38.438 81.18,34.14C83.388,38.446 84.669,43.168 84.94,48L77.43,48ZM84.94,52C84.669,56.832 83.388,61.554 81.18,65.86C78.952,61.562 77.673,56.835 77.43,52L84.94,52ZM78.83,30.19C75.568,35.581 73.711,41.705 73.43,48L64,48L64,17.93C69.984,20.563 75.119,24.808 78.83,30.19ZM60,16.46L60,48L50.93,48C50.295,36.196 44.198,25.337 34.45,18.65C42.38,14.715 51.516,13.932 60,16.46ZM30.57,20.91C40.134,26.699 46.258,36.841 46.93,48L15.06,48C15.693,37.045 21.443,27.002 30.57,20.91ZM15.06,52L46.93,52C46.268,63.162 40.141,73.308 30.57,79.09C21.443,72.998 15.693,62.955 15.06,52ZM34.45,81.35C44.2,74.665 50.298,63.805 50.93,52L60,52L60,83.54C51.516,86.068 42.38,85.285 34.45,81.35ZM64,82.07L64,52L73.43,52C73.706,58.295 75.563,64.421 78.83,69.81C75.119,75.192 69.984,79.437 64,82.07Z" style="fill:white;fill-rule:nonzero;"/>
  </g>
</svg>