<svg width="100%" height="100%" viewBox="0 0 96 52" version="1.1" style="fill-rule:evenodd;clip-rule:evenodd;stroke-linejoin:round;stroke-miterlimit:2;">
  <g transform="matrix(1,0,0,1,0,-21.6613)">
      <path d="M48,53.156C25.7,53.156 2,47.816 2,37.908C2,27.992 25.7,22.656 48,22.656C70.3,22.656 94,28 94,37.908C94,47.816 70.3,53.156 48,53.156ZM48,26.66C21.98,26.66 6,33.216 6,37.912C6,42.616 21.98,49.164 48,49.164C74.02,49.164 90,42.612 90,37.912C90,33.212 74.02,26.66 48,26.66Z" style="fill:rgb(255,138,7);fill-rule:nonzero;"/>
  </g>
  <g transform="matrix(1,0,0,1,0,-21.6613)">
      <path d="M48,73.344C25.7,73.344 2,67.928 2,57.908L2,38.66C2,37.56 2.896,36.66 4,36.66C5.104,36.66 6,37.56 6,38.66L6,57.908C6,62.688 21.98,69.344 48,69.344C75.044,69.344 90,62.796 90,58.28L90,38.66C90,37.56 90.9,36.66 92,36.66C93.1,36.66 94,37.56 94,38.66L94,58.284C94,68.172 70.86,73.344 48,73.344Z" style="fill:rgb(255,138,7);fill-rule:nonzero;"/>
  </g>
</svg>