<svg width="100%" height="100%" viewBox="0 0 100 100" version="1.1" style="fill-rule:evenodd;clip-rule:evenodd;stroke-linecap:round;stroke-linejoin:round;">
  <g transform="matrix(1.29556,0,0,1.29556,-14.9135,-16.9737)">
      <path id="a" d="M86.7,51.65C86.7,52.696 86.658,53.729 86.575,54.75C86.437,56.588 86.171,58.371 85.775,60.1C84.412,66.182 81.496,71.623 77.025,76.425C76.663,76.823 76.288,77.214 75.9,77.6C72.033,81.5 67.667,84.367 62.8,86.2C58.8,87.667 54.517,88.4 49.95,88.4C40.974,88.4 33.149,85.575 26.475,79.925C25.614,79.197 24.772,78.422 23.95,77.6C18.217,71.867 14.775,65.184 13.625,57.55C13.342,55.644 13.2,53.677 13.2,51.65C13.2,48.383 13.583,45.217 14.35,42.15C15.95,36.017 19.15,30.517 23.95,25.65C28.853,20.77 34.436,17.553 40.7,16C43.633,15.267 46.717,14.9 49.95,14.9C53.441,14.9 56.758,15.325 59.9,16.175C60.978,16.466 62.036,16.807 63.075,17.2C64.753,17.845 66.378,18.62 67.95,19.525C70.417,20.942 72.667,22.617 74.7,24.55L75.9,25.65C83.1,32.85 86.7,41.517 86.7,51.65ZM85.775,60.1C84.387,49.67 78.378,39.404 67.75,29.3C63.15,32.71 59.317,36.06 56.25,39.35L59.7,42.1C62.467,44.433 65.017,46.883 67.35,49.45C74.783,57.717 78.008,66.708 77.025,76.425M74.7,24.55C72.9,25.65 70.783,27.083 68.35,28.85C68.147,28.999 67.947,29.149 67.75,29.3M40.7,16C33.133,22.533 28.2,30.033 25.9,38.5C24.767,42.767 24.383,46.367 24.75,49.3C28.583,51.033 32.633,52.15 36.9,52.65C37.9,47.783 39.6,42.6 42,37.1C46.821,26.161 52.788,19.186 59.9,16.175M14.35,42.15L17,44.55C19.3,46.417 21.883,48 24.75,49.3M57.95,62.45C54.781,64.425 47.681,65.675 36.65,66.2C25.617,66.731 17.942,63.847 13.625,57.55M62.8,86.2C63.033,85.467 63.217,84.45 63.35,83.15C63.65,80.583 63.6,77.967 63.2,75.3C63.18,75.164 63.164,75.031 63.15,74.9C59.02,76.746 53.32,78.212 46.05,79.3C38.78,80.388 31.346,79.604 23.75,76.95M63.15,74.9C61.794,66.33 57.21,58.78 49.4,52.25C45.1,52.95 40.933,53.083 36.9,52.65M56.25,39.35C51.817,44.183 49.533,48.483 49.4,52.25" style="fill:none;fill-rule:nonzero;stroke:white;stroke-width:3px;"/>
  </g>
</svg>