<svg width="100%" height="100%" viewBox="0 0 52 58" version="1.1" style="fill-rule:evenodd;clip-rule:evenodd;stroke-linejoin:round;stroke-miterlimit:2;">
  <g>
      <g>
          <rect x="25.669" y="13.447" width="0.651" height="2" style="fill:white;"/>
      </g>
      <g>
          <path d="M18.557,15.447C18.258,15.447 17.974,15.313 17.784,15.082L11.933,7.959C11.688,7.66 11.637,7.247 11.802,6.897C11.968,6.547 12.32,6.324 12.706,6.324L16.02,6.324L16.02,3C16.02,2.578 16.286,2.201 16.683,2.059C17.08,1.916 17.525,2.039 17.793,2.366L27.143,13.761C27.381,14.049 27.438,14.446 27.29,14.79C27.143,15.134 26.816,15.366 26.444,15.394L25.741,15.444L18.557,15.447ZM19.03,13.447L24.298,13.447L18.02,5.795L18.02,7.324C18.02,7.877 17.573,8.324 17.02,8.324L14.822,8.324L19.03,13.447Z" style="fill:white;fill-rule:nonzero;"/>
      </g>
      <g>
          <path d="M33.433,15.447L26.321,15.447L25.546,15.394C25.174,15.366 24.846,15.134 24.699,14.79C24.552,14.446 24.609,14.049 24.846,13.761L34.197,2.366C34.464,2.039 34.907,1.916 35.306,2.059C35.704,2.201 35.969,2.578 35.969,3L35.969,6.324L39.294,6.324C39.681,6.324 40.033,6.547 40.198,6.898C40.364,7.247 40.312,7.661 40.066,7.96L34.205,15.082C34.015,15.313 33.732,15.447 33.433,15.447ZM33.969,5.795L27.69,13.449L32.961,13.447L37.177,8.324L34.969,8.324C34.417,8.324 33.969,7.877 33.969,7.324L33.969,5.795Z" style="fill:white;fill-rule:nonzero;"/>
      </g>
      <g>
          <path d="M30.052,50L21.948,50L21.948,13.447L30.052,13.447L30.052,50ZM23.948,48L28.052,48L28.052,15.447L23.948,15.447L23.948,48Z" style="fill:white;fill-rule:nonzero;"/>
      </g>
      <g>
          <g>
              <path d="M22.948,50L8.877,50C7.774,50 6.877,49.103 6.877,48L6.877,20.023C6.877,19.47 7.325,19.023 7.877,19.023L22.948,19.023C23.5,19.023 23.948,19.47 23.948,20.023L23.948,49C23.948,49.552 23.5,50 22.948,50ZM8.877,21.023L8.877,48L21.948,48L21.948,21.023L8.877,21.023Z" style="fill:white;fill-rule:nonzero;"/>
          </g>
          <g>
              <path d="M31.146,50L29.052,50C28.5,50 28.052,49.552 28.052,49L28.052,20.023C28.052,19.47 28.5,19.023 29.052,19.023L44.123,19.023C44.675,19.023 45.123,19.47 45.123,20.023L45.123,40.286L43.123,40.286L43.123,21.023L30.052,21.023L30.052,48L31.146,48L31.146,50Z" style="fill:white;"/>
          </g>
      </g>
      <g>
          <g>
              <path d="M22.948,21.023L5.239,21.023C4.687,21.023 4.239,20.575 4.239,20.023L4.239,15.447C4.239,14.344 5.136,13.447 6.239,13.447L22.948,13.447C23.5,13.447 23.948,13.895 23.948,14.447L23.948,20.023C23.948,20.575 23.5,21.023 22.948,21.023ZM6.239,19.023L21.948,19.023L21.948,15.447L6.239,15.447L6.239,19.023Z" style="fill:white;fill-rule:nonzero;"/>
          </g>
          <g>
              <path d="M46.761,21.023L29.052,21.023C28.5,21.023 28.052,20.575 28.052,20.023L28.052,14.447C28.052,13.895 28.5,13.447 29.052,13.447L45.761,13.447C46.864,13.447 47.761,14.344 47.761,15.447L47.761,20.023C47.761,20.575 47.313,21.023 46.761,21.023ZM30.052,19.023L45.761,19.023L45.761,15.447L30.052,15.447L30.052,19.023Z" style="fill:white;fill-rule:nonzero;"/>
          </g>
      </g>
      <g transform="matrix(0.0384267,0,0,0.0384267,31.8629,37.8107)">
          <path d="M472.739,79.381L39.276,79.381C17.589,79.381 0.012,96.974 0.012,118.63L0.012,393.402C0.012,415.054 17.59,432.619 39.276,432.619L472.739,432.619C494.41,432.619 511.987,415.055 511.987,393.402L511.987,118.63C511.987,96.975 494.41,79.381 472.739,79.381ZM472.739,118.63L472.739,157.91L39.276,157.91L39.276,118.63L472.739,118.63ZM39.276,393.402L39.276,236.376L472.739,236.376L472.739,393.402L39.276,393.402Z" style="fill:white;fill-rule:nonzero;"/>
      </g>
  </g>
</svg>