<svg width="100%" height="100%" viewBox="0 0 512 470" version="1.1" style="fill-rule:evenodd;clip-rule:evenodd;stroke-linejoin:round;stroke-miterlimit:2;">
  <g transform="matrix(1,0,0,1,0,-27.4502)">
      <path d="M459.844,387.158L52.156,387.158C34.246,387.158 19.676,372.587 19.676,354.678L19.676,73.636C19.676,55.727 34.247,41.156 52.156,41.156L459.844,41.156C477.754,41.156 492.324,55.727 492.324,73.636L492.324,354.678C492.324,372.588 477.754,387.158 459.844,387.158ZM52.156,56.156C42.517,56.156 34.676,63.998 34.676,73.636L34.676,354.678C34.676,364.316 42.518,372.158 52.156,372.158L459.844,372.158C469.483,372.158 477.324,364.316 477.324,354.678L477.324,73.636C477.324,63.998 469.482,56.156 459.844,56.156L52.156,56.156Z" style="fill:white;fill-rule:nonzero;"/>
      <path d="M459.844,387.158L52.156,387.158C34.246,387.158 19.676,372.587 19.676,354.678L19.676,313.105C19.676,308.963 23.034,305.605 27.176,305.605L484.824,305.605C488.967,305.605 492.324,308.963 492.324,313.105L492.324,354.678C492.324,372.588 477.754,387.158 459.844,387.158ZM34.676,320.605L34.676,354.678C34.676,364.316 42.518,372.158 52.156,372.158L459.844,372.158C469.483,372.158 477.324,364.316 477.324,354.678L477.324,320.605L34.676,320.605Z" style="fill:white;fill-rule:nonzero;"/>
      <path d="M311.517,445.345L200.503,445.345C198.292,445.345 196.193,444.369 194.768,442.678C193.343,440.987 192.737,438.754 193.111,436.574L203.111,378.387C203.73,374.788 206.851,372.157 210.503,372.157L301.497,372.157C305.149,372.157 308.27,374.787 308.889,378.387L318.793,436.018C318.939,436.602 319.017,437.215 319.017,437.844C319.017,441.987 315.659,445.345 311.517,445.345ZM209.402,430.345L302.599,430.345L295.176,387.158L216.824,387.158L209.402,430.345Z" style="fill:white;fill-rule:nonzero;"/>
      <path d="M329.497,470.844L182.504,470.844C171.338,470.844 162.254,461.76 162.254,450.594C162.254,439.428 171.338,430.344 182.504,430.344L329.497,430.344C340.662,430.344 349.746,439.428 349.746,450.594C349.746,461.76 340.662,470.844 329.497,470.844ZM182.504,445.345C179.609,445.345 177.254,447.7 177.254,450.595C177.254,453.49 179.609,455.845 182.504,455.845L329.497,455.845C332.392,455.845 334.746,453.49 334.746,450.595C334.746,447.7 332.392,445.345 329.497,445.345L182.504,445.345Z" style="fill:white;fill-rule:nonzero;"/>
      <circle cx="256" cy="346.381" r="12.75" style="fill:white;"/>
  </g>
</svg>