<svg width="100%" height="100%" viewBox="0 0 100 80" version="1.1" style="fill-rule:evenodd;clip-rule:evenodd;stroke-linejoin:round;stroke-miterlimit:2;">
  <g transform="matrix(1,0,0,1,-0.05,-10.2774)">
      <g>
          <circle cx="64" cy="78.6" r="1.8" style="fill:white;"/>
          <g transform="matrix(0.811981,0,0,0.811981,7.57075,15.6491)">
              <circle cx="40" cy="82.7" r="1.7" style="fill:white;"/>
          </g>
          <path d="M95.2,62.5L92.2,62.5L92.2,16.7C92.2,14.1 90.1,12 87.5,12L12.5,12C9.9,12 7.8,14.1 7.8,16.7L7.8,62.4L4.8,62.4C2.6,62.4 0.9,64.2 0.9,66.3L0.9,68.6C0.9,70.8 2.7,72.5 4.8,72.5L27.2,72.5L27.2,83.4C27.2,85.9 29.2,87.9 31.7,87.9L48.4,87.9C50.7,87.9 52.5,86.2 52.8,84.1L81.3,84.1C83.6,84.1 85.5,82.2 85.5,79.9L85.5,72.6L95.3,72.6C97.5,72.6 99.2,70.8 99.2,68.7L99.2,66.4C99.2,64.2 97.4,62.5 95.2,62.5ZM10.8,16.7C10.8,15.8 11.6,15 12.5,15L87.6,15C88.5,15 89.3,15.8 89.3,16.7L89.3,21.6L10.8,21.6L10.8,16.7ZM27.2,69.6L4.8,69.6C4.3,69.6 3.9,69.2 3.9,68.7L3.9,66.4C3.9,65.9 4.3,65.5 4.8,65.5L27.2,65.5L27.2,69.6ZM49.8,83.5C49.8,84.3 49.1,85 48.3,85L31.6,85C30.8,85 30.1,84.3 30.1,83.5L30.1,80.6L49.8,80.6L49.8,83.5ZM49.9,77.6L30.2,77.6L30.2,55.7L49.9,55.7L49.9,77.6ZM49.9,55.7L30.2,55.7L30.2,52.1C30.2,51.3 30.9,50.6 31.7,50.6L48.4,50.6C49.2,50.6 49.9,51.3 49.9,52.1L49.9,55.7ZM82.5,79.9C82.5,80.6 81.9,81.1 81.3,81.1L52.8,81.1L52.8,76L82.4,76L82.4,79.9L82.5,79.9ZM82.5,73L52.8,73L52.8,52.2C52.8,49.7 50.8,47.7 48.3,47.7L45.6,47.7L45.6,39.3L82.4,39.3L82.4,73L82.5,73ZM82.4,39.3L45.6,39.3L45.6,34.7C45.6,34 46.2,33.5 46.8,33.5L81.1,33.5C81.8,33.5 82.3,34.1 82.3,34.7L82.3,36.2L82.4,39.3ZM81.2,30.5L46.9,30.5C44.6,30.5 42.7,32.4 42.7,34.7L42.7,47.7L31.7,47.7C29.2,47.7 27.2,49.7 27.2,52.2L27.2,62.5L10.8,62.5L10.8,21.6L89.3,21.6L89.3,62.4L85.5,62.4L85.5,34.7C85.5,32.4 83.6,30.5 81.2,30.5ZM96.2,68.7C96.2,69.2 95.8,69.6 95.3,69.6L85.5,69.6L85.5,65.5L95.3,65.5C95.8,65.5 96.2,65.9 96.2,66.4L96.2,68.7Z" style="fill:white;fill-rule:nonzero;"/>
      </g>
  </g>
</svg>