<svg width="100%" height="100%" viewBox="0 0 24 24" version="1.1" style="fill-rule:evenodd;clip-rule:evenodd;stroke-linejoin:round;stroke-miterlimit:2;">
  <g transform="matrix(1,0,0,1,1,0)">
      <g>
          <g>
              <path d="M10,21.5C10,20.948 9.552,20.5 9,20.5C8.448,20.5 8,20.948 8,21.5C8,22.052 8.448,22.5 9,22.5C9.552,22.5 10,22.052 10,21.5Z" style="fill:rgb(255,127,0);"/>
              <g transform="matrix(1,0,0,1,-1.10795,-0.115826)">
                  <circle cx="18.108" cy="22.08" r="0.621" style="fill:rgb(255,127,0);"/>
              </g>
              <path d="M18,6L18,1.5C18,0.672 17.328,-0 16.5,0L1.5,0C0.672,0 -0,0.672 0,1.5L0,22.5C0,23.328 0.672,24 1.5,24L14,24L14,23L1.5,23C1.224,23 1,22.776 1,22.5L1,1.5C1,1.224 1.224,1 1.5,1L16.5,1C16.776,1 17,1.224 17,1.5L17,6L18,6Z" style="fill:rgb(255,127,0);fill-rule:nonzero;"/>
              <rect x="0" y="19" width="13" height="1" style="fill:rgb(255,127,0);"/>
              <path d="M13.5,7C13.224,7 13,7.224 13,7.5L13,22.5C13,22.776 13.224,23 13.5,23L20.5,23C20.776,23 21,22.776 21,22.5L21,7.5C21,7.224 20.776,7 20.5,7L13.5,7ZM13.5,6L20.5,6C21.328,6 22,6.672 22,7.5L22,22.5C22,23.328 21.328,24 20.5,24L13.5,24C12.672,24 12,23.328 12,22.5L12,7.5C12,6.672 12.672,6 13.5,6Z" style="fill:rgb(255,127,0);fill-rule:nonzero;"/>
              <g transform="matrix(0.963669,0,0,0.846019,-0.200712,3.27481)">
                  <rect x="13.698" y="19.959" width="8.302" height="1" style="fill:rgb(255,127,0);"/>
              </g>
          </g>
      </g>
  </g>
</svg>