    <svg width="100%" height="100%" viewBox="0 0 60 57" version="1.1" xmlns="http://www.w3.org/2000/svg" style="fill-rule:evenodd;clip-rule:evenodd;stroke-linejoin:round;stroke-miterlimit:2;">
  <g transform="matrix(-1.03555,0.321897,0.333626,1.07328,53.6243,-11.3271)">
      <g>
          <path d="M42,43C35.376,42.993 30.007,37.624 30,31C30,30.448 29.552,30 29,30C28.448,30 28,30.448 28,31C28.008,38.729 34.271,44.992 42,45C42.552,45 43,44.552 43,44C43,43.448 42.552,43 42,43Z" style="fill: rgb(255, 127, 0); fill-rule: nonzero; darkreader-inline-fill:#ff8c1a;" data-darkreader-inline-fill=""></path>
          <path d="M42,17C41.448,17 41,17.448 41,18C41,18.552 41.448,19 42,19C48.624,19.007 53.993,24.376 54,31C54,31.552 54.448,32 55,32C55.552,32 56,31.552 56,31C55.992,23.271 49.729,17.008 42,17Z" style="fill: rgb(255, 127, 0); fill-rule: nonzero; darkreader-inline-fill:#ff8c1a;" data-darkreader-inline-fill=""></path>
          <path d="M42,21C36.477,21 32,25.477 32,31C32,36.523 36.477,41 42,41C47.523,41 52,36.523 52,31C51.994,25.48 47.52,21.006 42,21ZM42,39C37.582,39 34,35.418 34,31C34,26.582 37.582,23 42,23C46.418,23 50,26.582 50,31C49.995,35.416 46.416,38.995 42,39Z" style="fill: rgb(255, 127, 0); fill-rule: nonzero; darkreader-inline-fill:#ff8c1a;" data-darkreader-inline-fill=""></path>
          <path d="M43.305,13.047C43.206,13.016 43.103,13 43,13L3,13C1.961,13.001 0.996,13.539 0.449,14.424C-0.097,15.308 -0.146,16.412 0.319,17.342L3.439,23.583C3.85,24.408 4.618,24.998 5.521,25.183L21.586,28.34C22.958,28.598 23.964,29.779 24,31.175C24.015,32.576 24.191,33.972 24.524,35.333C26.443,42.956 33.067,48.467 40.912,48.968C41.281,48.99 41.647,49 42.012,49C51.698,48.995 59.644,41.326 59.992,31.646C60.339,21.966 52.964,13.747 43.303,13.047L43.305,13.047ZM28,15L28,18C28,18.552 27.552,19 27,19C26.448,19 26,18.552 26,18L26,15L28,15ZM52.975,42.644C49.768,45.685 45.44,47.253 41.029,46.972C34.058,46.527 28.174,41.631 26.469,34.857C26.171,33.646 26.014,32.404 26.001,31.157C25.954,28.812 24.274,26.82 21.971,26.377L5.918,23.219C5.619,23.158 5.364,22.962 5.229,22.688L2.108,16.447C1.953,16.137 1.97,15.77 2.151,15.475C2.333,15.181 2.654,15.001 3,15L24,15L24,18C24,19.657 25.343,21 27,21C28.657,21 30,19.657 30,18L30,15L42,15C42.311,15 42.629,15.009 42.943,15.028C49.318,15.404 54.859,19.535 57.04,25.537C59.22,31.54 57.622,38.264 52.975,42.644Z" style="fill: rgb(255, 127, 0); fill-rule: nonzero; darkreader-inline-fill:#ff8c1a;" data-darkreader-inline-fill=""/>
          <path d="M32.485,4.143C32.012,4.427 31.859,5.042 32.143,5.515L35.143,10.515C35.324,10.828 35.659,11.02 36.021,11.015C36.382,11.011 36.713,10.812 36.887,10.495C37.06,10.178 37.049,9.792 36.857,9.485L33.857,4.485C33.573,4.012 32.958,3.859 32.485,4.143Z" style="fill: rgb(255, 127, 0); fill-rule: nonzero; darkreader-inline-fill:#ff8c1a;" data-darkreader-inline-fill=""></path>
          <path d="M46.143,4.485L43.143,9.485C42.951,9.792 42.94,10.178 43.113,10.495C43.287,10.812 43.618,11.011 43.979,11.015C44.341,11.02 44.676,10.828 44.857,10.515L47.857,5.515C48.129,5.043 47.973,4.439 47.506,4.158C47.038,3.877 46.432,4.023 46.143,4.485Z" style="fill: rgb(255, 127, 0); fill-rule: nonzero; darkreader-inline-fill:#ff8c1a;" data-darkreader-inline-fill=""></path>
          <path d="M39,1L39,10C39,10.552 39.448,11 40,11C40.552,11 41,10.552 41,10L41,1C41,0.448 40.552,0 40,0C39.448,0 39,0.448 39,1Z" style="fill: rgb(255, 127, 0); fill-rule: nonzero; darkreader-inline-fill:#ff8c1a;" data-darkreader-inline-fill=""></path>
      </g>
  </g>
</svg>