<svg width="100%" height="100%" viewBox="0 0 50 57" version="1.1" style="fill-rule:evenodd;clip-rule:evenodd;stroke-linejoin:round;stroke-miterlimit:2;">
  <g transform="matrix(1.10392,0,0,1.10392,-2.54444,-0.500103)">
      <g transform="matrix(1,0,0,1,-1.28786e-14,0.578807)">
          <path d="M12.5,19.1C12.1,18.7 11.5,18.7 11.1,19.1L8,22.3L4.9,19.2C4.5,18.8 3.9,18.8 3.5,19.2C3.1,19.6 3.1,20.2 3.5,20.6L6.6,23.7L3.5,26.8C3.1,27.2 3.1,27.8 3.5,28.2C3.9,28.6 4.5,28.6 4.9,28.2L8,25.1L11.1,28.2C11.5,28.6 12.1,28.6 12.5,28.2C12.9,27.8 12.9,27.2 12.5,26.8L9.4,23.7L12.5,20.6C12.9,20.1 12.9,19.5 12.5,19.1Z" style="fill:white;fill-rule:nonzero;"/>
      </g>
      <g transform="matrix(1,0,0,1,-1.28786e-14,0.578807)">
          <path d="M18.9,41.8C18.4,42 18,42.5 18.1,43C18.2,43.5 18.7,43.9 19.3,43.8C27.4,42.1 33.5,35.3 34.1,27.1C34.7,19.8 30.7,12.8 24.2,9.4L29.2,7.5C29.7,7.3 30,6.7 29.8,6.2C29.6,5.7 29,5.4 28.5,5.6C18.6,9.3 21.7,8.1 21.1,8.4C20.7,8.6 20.5,8.9 20.5,9.3L20.8,17.6C20.8,18.2 21.3,18.6 21.8,18.6C22.3,18.6 22.8,18.1 22.8,17.6L22.5,10.9C28.6,13.8 32.5,20.2 31.9,27C31.6,34.3 26.2,40.4 18.9,41.8Z" style="fill:white;fill-rule:nonzero;"/>
      </g>
      <g transform="matrix(1,0,0,1,-1.28786e-14,0.578807)">
          <path d="M37.1,14.8C37.5,15.2 38.1,15.2 38.5,14.8L41.6,11.7L44.7,14.8C45.1,15.2 45.7,15.2 46.1,14.8C46.5,14.4 46.5,13.8 46.1,13.4L43,10.2L46.1,7.1C46.5,6.7 46.5,6.1 46.1,5.7C45.7,5.3 45.1,5.3 44.7,5.7L41.6,8.8L38.5,5.7C38.1,5.3 37.5,5.3 37.1,5.7C36.7,6.1 36.7,6.7 37.1,7.1L40.2,10.2L37.1,13.3C36.7,13.8 36.7,14.4 37.1,14.8Z" style="fill:white;fill-rule:nonzero;"/>
      </g>
      <g transform="matrix(1,0,0,1,-1.28786e-14,0.578807)">
          <path d="M14,43.4C14,40.3 11.5,37.8 8.4,37.8C5.3,37.8 2.8,40.3 2.8,43.4C2.8,46.5 5.3,49 8.4,49C11.5,49 14,46.5 14,43.4ZM4.7,43.4C4.7,41.4 6.3,39.8 8.3,39.8C10.3,39.8 11.9,41.4 11.9,43.4C11.9,45.4 10.3,47 8.3,47C6.3,47 4.7,45.4 4.7,43.4Z" style="fill:white;fill-rule:nonzero;"/>
      </g>
      <g transform="matrix(1,0,0,1,-1.28786e-14,0.578807)">
          <path d="M8.4,1C5.3,1 2.7,3.5 2.7,6.6C2.7,9.7 5.2,12.2 8.3,12.2C11.4,12.2 13.9,9.7 13.9,6.6C14,3.5 11.5,1 8.4,1ZM8.4,10.3C6.4,10.3 4.8,8.7 4.8,6.7C4.8,4.7 6.4,3.1 8.4,3.1C10.4,3.1 12,4.6 12,6.6C12,8.6 10.4,10.3 8.4,10.3Z" style="fill:white;fill-rule:nonzero;"/>
      </g>
      <g transform="matrix(1,0,0,1,-1.28786e-14,0.578807)">
          <path d="M41.6,37.7C38.5,37.7 36,40.2 36,43.3C36,46.4 38.5,48.9 41.6,48.9C44.7,48.9 47.2,46.4 47.2,43.3C47.3,40.2 44.7,37.7 41.6,37.7ZM41.6,47C39.6,47 38,45.4 38,43.4C38,41.4 39.6,39.8 41.6,39.8C43.6,39.8 45.2,41.4 45.2,43.4C45.3,45.4 43.6,47 41.6,47Z" style="fill:white;fill-rule:nonzero;"/>
      </g>
  </g>
</svg>