<svg width="100%" height="100%" viewBox="0 0 52 56" version="1.1" style="fill-rule:evenodd;clip-rule:evenodd;stroke-linejoin:round;stroke-miterlimit:2;">
  <g>
      <g>
          <g>
              <path d="M41.658,19.023L44.123,19.023C44.133,19.023 44.143,19.023 44.154,19.023L45.761,19.023L45.761,15.447L45.233,15.447L46.886,13.794C47.414,14.155 47.761,14.761 47.761,15.447L47.761,20.023C47.761,20.575 47.313,21.023 46.761,21.023L45.123,21.023L45.123,48C45.123,49.103 44.226,50 43.123,50L10.68,50L12.68,48L21.948,48L21.948,38.733L23.948,36.733L23.948,48L28.052,48L28.052,32.628L30.052,30.628L30.052,48L43.123,48L43.123,21.023L39.657,21.023L41.658,19.023ZM6.877,46.466L6.877,21.023L5.239,21.023C4.687,21.023 4.239,20.575 4.239,20.023L4.239,15.447C4.239,14.344 5.136,13.447 6.239,13.447L16.442,13.447L11.933,7.959C11.688,7.66 11.637,7.247 11.802,6.897C11.968,6.547 12.32,6.324 12.706,6.324L16.02,6.324L16.02,3C16.02,2.578 16.286,2.201 16.683,2.059C17.08,1.916 17.525,2.039 17.793,2.366L25.995,12.361L34.197,2.366C34.464,2.039 34.907,1.916 35.306,2.059C35.704,2.201 35.969,2.578 35.969,3L35.969,6.324L39.294,6.324C39.681,6.324 40.033,6.547 40.198,6.898C40.364,7.247 40.312,7.661 40.066,7.96L35.55,13.447L39.896,13.447L37.896,15.447L30.052,15.447L30.052,19.023L34.32,19.023L32.32,21.023L30.052,21.023L30.052,23.291L28.052,25.291L28.052,15.447L23.948,15.447L23.948,29.396L21.948,31.396L21.948,21.023L8.877,21.023L8.877,44.466L6.877,46.466ZM21.948,15.447L6.239,15.447L6.239,19.023L7.877,19.023L21.948,19.023L21.948,15.447ZM31.643,13.447L32.961,13.447L37.177,8.324L34.969,8.324C34.417,8.324 33.969,7.877 33.969,7.324L33.969,5.795L27.692,13.447L31.643,13.447ZM19.03,13.447L24.298,13.447L18.02,5.795L18.02,7.324C18.02,7.877 17.573,8.324 17.02,8.324L14.822,8.324L19.03,13.447Z" style="fill:rgb(255,138,7);fill-rule:nonzero;"/>
          </g>
      </g>
      <g transform="matrix(0.737128,0.737128,-0.810082,0.810082,16.2114,-32.3585)">
          <path d="M50.755,3.976C50.755,3.692 50.501,3.461 50.189,3.461L49.057,3.461C48.745,3.461 48.491,3.692 48.491,3.976L48.491,60.543C48.491,60.827 48.745,61.058 49.057,61.058L50.189,61.058C50.501,61.058 50.755,60.827 50.755,60.543L50.755,3.976Z" style="fill:rgb(255,138,7);"/>
      </g>
  </g>
</svg>