<svg width="100%" height="100%" viewBox="0 0 64 80" version="1.1" style="fill-rule:evenodd;clip-rule:evenodd;stroke-linejoin:round;stroke-miterlimit:2;">
  <g transform="matrix(1.28439,0,0,1.28439,-9.10034,-1.10034)">
      <path d="M35.139,22.611C35.277,22.684 35.432,22.722 35.589,22.722C36.119,22.722 36.556,22.285 36.556,21.754C36.556,21.7 36.551,21.645 36.542,21.591L35.943,18.097L38.482,15.622C38.669,15.44 38.774,15.19 38.774,14.929C38.774,14.45 38.419,14.04 37.945,13.971L34.437,13.461L32.867,10.281C32.686,9.975 32.356,9.786 32,9.786C31.644,9.786 31.313,9.975 31.132,10.281L29.562,13.461L26.054,13.971C25.58,14.04 25.225,14.45 25.225,14.929C25.225,15.19 25.33,15.44 25.517,15.622L28.057,18.097L27.457,21.591C27.448,21.645 27.443,21.7 27.443,21.754C27.443,22.285 27.88,22.722 28.411,22.722C28.568,22.722 28.722,22.684 28.861,22.611L32,20.961L35.139,22.611ZM29.697,19.985L30.05,17.922C30.104,17.608 30,17.288 29.773,17.065L28.273,15.604L30.344,15.303C30.659,15.257 30.932,15.059 31.073,14.774L32,12.896L32.927,14.774C33.068,15.059 33.341,15.257 33.656,15.303L35.727,15.604L34.227,17.065C34,17.288 33.896,17.608 33.95,17.922L34.303,19.985L32.45,19.011C32.169,18.863 31.831,18.863 31.55,19.011L29.697,19.985ZM37.807,36.839L37.807,31.805C40.648,30.634 43.077,28.644 44.782,26.088C51.622,23.577 56.194,17.028 56.194,9.742C56.191,7.619 54.445,5.873 52.323,5.871L49.041,5.871L49.411,3.096C49.416,3.054 49.419,3.011 49.419,2.968C49.419,2.437 48.983,2 48.452,2L15.548,2C15.017,2 14.581,2.437 14.581,2.968C14.581,3.011 14.584,3.054 14.589,3.096L14.959,5.871L11.677,5.871C9.555,5.873 7.809,7.619 7.806,9.742C7.806,17.028 12.378,23.577 19.218,26.088C20.924,28.644 23.353,30.634 26.194,31.805L26.194,36.839C26.196,37.856 26.735,38.799 27.609,39.319C28.292,41.793 27.941,44.442 26.637,46.653L25.627,48.452L22.322,48.452C21.792,48.452 21.355,48.889 21.355,49.419L21.355,53.29L18.451,53.29C17.921,53.29 17.484,53.727 17.484,54.257L17.484,61.033C17.484,61.563 17.921,62 18.451,62L45.549,62C46.079,62 46.516,61.563 46.516,61.033L46.516,54.258C46.516,53.727 46.079,53.29 45.549,53.29L42.645,53.29L42.645,49.419C42.645,48.888 42.208,48.452 41.678,48.452L38.373,48.452L37.362,46.651C36.059,44.44 35.709,41.792 36.391,39.318C37.265,38.799 37.804,37.855 37.807,36.839L37.807,36.839ZM52.323,7.807C53.384,7.808 54.257,8.681 54.258,9.742C54.269,13.849 52.634,17.794 49.722,20.69C48.688,21.712 47.517,22.584 46.241,23.281C46.71,22.118 47.033,20.901 47.202,19.658L48.783,7.807L52.323,7.807ZM14.278,20.69C11.366,17.794 9.731,13.849 9.742,9.742C9.743,8.681 10.616,7.808 11.677,7.807L15.217,7.807L16.797,19.658C16.967,20.901 17.29,22.118 17.759,23.281C16.483,22.584 15.312,21.712 14.278,20.69ZM18.716,19.402L16.654,3.936L47.346,3.936L45.284,19.402C44.4,26.029 38.686,31.032 32,31.032C25.314,31.032 19.6,26.029 18.716,19.402ZM32,32.968C33.307,32.965 34.608,32.794 35.871,32.458L35.871,36.839C35.87,37.37 35.434,37.806 34.903,37.807L29.097,37.807C28.566,37.806 28.13,37.37 28.129,36.839L28.129,32.457C29.392,32.793 30.693,32.965 32,32.968ZM44.581,60.065L19.419,60.065L19.419,55.226L44.581,55.226L44.581,60.065ZM40.71,53.29L23.29,53.29L23.29,50.387L40.71,50.387L40.71,53.29ZM36.154,48.451L27.846,48.451L28.324,47.6C29.711,45.232 30.2,42.441 29.699,39.742L34.301,39.742C33.8,42.44 34.288,45.231 35.675,47.599L36.154,48.451Z" style="fill:white;fill-rule:nonzero;"/>
  </g>
  <g transform="matrix(1,0,0,1,0,84)">
      <text x="0px" y="0px" style="font-family:'HelveticaNeue-Bold', 'Helvetica Neue';font-weight:700;font-size:5px;fill:white;">from the Noun Project</text>
  </g>
</svg>